<svg xmlns="http://www.w3.org/2000/svg" width="641" height="640"><path fill-rule="evenodd" d="M142.48 0c1.38 0 6.46 1.35 11.27 3 4.8 1.65 9.65 3.2 10.75 3.45s6.05 1.63 11 3.07l12 3.5 9 2.47c3.3.88 7 2.15 8.23 2.82 2.2 1.2 2.2 1.23.25 2.46-1.1.7-2.2 1.14-2.45 1-.25-.14-4.2.5-8.75 1.4-4.55.9-14.36 3.08-21.78 4.82-7.43 1.74-17.1 4.2-21.5 5.5L138 36.98c-2.48.66-5.22 1.05-6.1.86-1.42-.3-1.26-1.64 1.32-11.34L137.7 9l1.9-7.75c.2-.7 1.5-1.25 2.88-1.25zM249 45.68c1.38.3 7.22.83 13 1.2 5.77.36 11.06 1 11.75 1.4.7.4 1.27 1.3 1.3 2s-9.22 7.55-20.54 15.25L231.53 81c-1.3.82-10.18 6.76-19.7 13.2l-26.08 17.75c-4.8 3.33-9.2 6.05-9.75 6.05s-1 .34-1 .75c0 .4-1.45 1.65-3.2 2.75l-5.47 3.5c-1.25.82-13.53 9.15-27.3 18.5L111.54 162c-1.32.82-6.26 4.1-10.98 7.25-4.7 3.16-9 5.75-9.56 5.75-.6 0-.74-1.32-.36-3.25.35-1.8 1-3.93 1.42-4.75.43-.83 1-2.62 1.28-4 .28-1.38 1.68-6.33 3.1-11 1.44-4.68 4-13.45 5.67-19.5s3.43-11.68 3.87-12.5c.45-.83 1.06-2.85 1.36-4.5s1.66-6.83 3.02-11.5l5.1-17.5c1.73-5.95 3.46-9.76 5.08-11.25C121.9 74 123.67 73 124.5 73c.82 0 2.3-.44 3.25-.98.96-.53 7.37-2.76 14.25-4.94 6.87-2.18 15.2-4.7 18.5-5.57 3.3-.87 7.12-1.8 8.5-2.06 1.38-.25 4.3-.9 6.5-1.45 2.2-.54 8.5-1.93 14-3.08 5.5-1.16 12.02-2.28 14.5-2.5 2.47-.23 6.3-.83 8.5-1.34s9.62-1.66 16.5-2.56c6.87-.9 13.62-2.03 15-2.5 1.38-.47 3.62-.62 5-.33zm63.93 4.7c1.97.28 5.14.96 7.07 1.5l8.5 2.47 31 9.2 19 5.44c4.4 1.17 9.57 2.74 11.5 3.47 1.92.73 3.95 1.4 4.5 1.47.55.08 2.8.62 5 1.2s6.47 1.85 9.5 2.8c3.02.97 7.3 2.26 9.5 2.87l14 4.1 24.5 7.06 20 5.67a490.3 490.3 0 0 1 12.5 3.89c3.85 1.27 8.8 2.66 11 3.1l4.5.9c.27.05 5 1.53 10.5 3.3s10.9 3.38 12 3.6c1.1.22 4.92 1.33 8.5 2.46l20.5 6.2 23 6.66 15.5 4.33c3.57 1 10.32 3 15 4.48 4.67 1.46 13 3.88 18.5 5.38 5.5 1.5 10.56 3.02 11.25 3.4.85.47 1.25 3.47 1.24 9.44 0 5.74-.72 11.33-2.08 16.25a592.79 592.79 0 0 1-4.9 16.5c-1.55 4.95-3.07 10.35-3.36 12-.3 1.65-1.28 5.25-2.18 8s-3.63 11.75-6.07 20l-7 24.5c-1.42 5.22-3.27 11.52-4.1 14-.83 2.47-1.68 5.17-1.88 6-.2.82-.78 3.07-1.3 5l-2.45 8.5-5.1 17-6.58 22.25c-1.63 5.64-2.62 10.23-2.2 10.2.4-.03.22.53-.42 1.25-.64.7-2.07 4.66-3.18 8.8-1.1 4.12-3.2 11.32-4.65 16l-5.55 18.5-12.07 41.5c-.56 1.92-1.38 5.07-1.82 7-.45 1.92-2.2 7.77-3.87 13l-7.62 25c-2.5 8.52-4.57 16.06-4.57 16.75s-1.12 4.5-2.5 8.5-2.7 8.15-2.96 9.25-1.57 5.82-2.93 10.5l-6.66 22.5-7.17 24.5-4.8 17-4.46 15c-1.44 4.67-3.96 13.45-5.6 19.5s-3.4 11.9-3.94 13-1.67 4.92-2.54 8.5c-.87 3.57-1.66 7.1-1.76 7.83-.12.84-1.1 1.16-2.68.87-1.38-.26-6.1-1.47-10.5-2.7l-15-4.06-12.5-3.46-8.5-2.47c-1.65-.46-6.83-2.03-11.5-3.5L430.5 620l-10-2.83-28-8.13-29.5-8.7-18.5-5.34c-5.5-1.55-11.9-3.54-14.25-4.42-2.34-.87-4.25-1.37-4.25-1.1 0 .27-1.58-.18-3.5-1-1.93-.83-3.84-1.4-4.25-1.3-.4.1-5.48-1.27-11.25-3.05l-17.5-5.25c-3.85-1.1-8.8-2.62-11-3.37s-8.5-2.56-14-4.03c-5.5-1.46-10.9-3.07-12-3.56-1.1-.5-3.13-1.12-4.5-1.38-1.37-.27-6.33-1.67-11-3.1L225.5 560c-1.65-.45-7.05-2.02-12-3.48l-12-3.5-15-4.4-18.75-5.58c-3.7-1.13-7.1-2.05-7.5-2.05s-3.45-.85-6.75-1.9-8.7-2.65-12-3.57-8.48-2.5-11.5-3.53c-3.03-1-9.1-2.8-13.5-4-4.4-1.17-10.14-2.9-12.77-3.83-2.62-.93-4.77-1.92-4.78-2.2-.01-.28.98-1.85 2.2-3.5 1.23-1.65 4.06-5.04 6.3-7.53L127 488.54l9.08-10.02 18.5-20 32.94-34.5 32.5-33.47 15.95-16.5c1.97-2.03 4.8-3 14-4.88 6.34-1.3 14.23-2.53 17.53-2.76 3.3-.22 7.57-.83 9.5-1.35 1.92-.52 6.87-1.2 11-1.5 4.12-.3 8.63-.76 10-1 1.37-.26 6.55-1 11.5-1.62l16-2.08a276.8 276.8 0 0 1 13.5-1.36c3.57-.25 9.65-.9 13.5-1.44s11.05-1.22 16-1.52c4.95-.3 10.27-.2 14.64.97l-5.15 6c-2.83 3.3-5.9 6.68-6.82 7.52s-3.43 3.54-5.6 6l-12.5 13.93L337 406.5l-15.6 17.06c-4.45 4.92-12.32 13.9-17.48 19.95l-9.95 11.5c-.3.27-4.37 5.22-9.02 11L272 482.5c-2.47 3.3-6.4 8.8-8.75 12.25-3.46 5.07-4.26 7.1-4.26 10.75 0 3.53.62 5.2 2.86 7.75 1.57 1.8 6.63 5.17 11.25 7.52 4.6 2.34 9.2 4.82 10.18 5.5 1.56 1.07 2.5.47 7.5-4.8l10.65-11.5 10.5-11.5 14.56-15.97 16.5-18.05 19.1-20.53L378.5 426c2.66-3.03 5.55-6.18 6.42-7 .87-.83 4.8-5.1 8.7-9.5l11-12.07c2.13-2.24 10.4-11.23 18.37-19.97l22-23.76c7.36-7.7 7.62-7.87 14-8.88 3.57-.57 15.72-1.04 27-1.06 11.27-.02 22.97.4 26 .92 3.02.52 7.3 1.93 9.5 3.14 2.2 1.2 4.9 2.18 6 2.17s3.8-.92 6-2c2.2-1.1 6.7-4.5 10-7.58s7.92-7 10.28-8.74c3.55-2.62 4.63-4.26 6.36-9.66 1.14-3.58 2.13-8.98 2.2-12 .06-3.03-.2-6.74-.6-8.25-.5-1.9-2.06-3.42-4.98-4.87-2.34-1.17-6.5-2.33-9.25-2.58-2.75-.26-7.7.05-11 .68s-10.05 1.4-15 1.7c-7.76.48-9.65.26-13.75-1.56-2.6-1.17-4.75-2.68-4.75-3.37-.01-.7 5.06-7.12 11.25-14.3 6.2-7.18 14.43-16.4 18.32-20.5l11.7-12.46c2.55-2.75 14.6-15.12 26.77-27.5 13.86-14.1 22.97-24.18 24.4-27 1.25-2.48 2.56-5.74 2.92-7.25.35-1.5.13-4.66-.5-7s-2.08-5.53-3.25-7.1c-1.16-1.57-3.8-3.7-5.87-4.75-2.06-1.05-6.9-2.58-10.75-3.4-3.85-.83-7.8-1.52-8.75-1.54-1.06-.02-5.47 4.62-11.18 11.75-5.2 6.48-11.26 13.83-13.5 16.33l-12.07 13.5L518 216.4c-3.58 3.8-20.68 21.16-38 38.58-17.33 17.42-32.63 32.27-34 33-1.38.74-4.08 1.75-6 2.24l-7 1.8-10 2.5c-3.58.87-8.08 1.8-10 2.04-1.93.25-5.75.87-8.5 1.38s-9.73 1.46-15.5 2.1l-17 2.06c-3.58.48-10.33 1.1-15 1.4-4.68.3-9.85.92-11.5 1.4-1.65.5-5.25.95-8 1.04s-9.28 1.04-14.5 2.12c-5.23 1.08-11.64 1.95-14.25 1.95-3.33-.01-4.9-.46-5.25-1.5-.28-.83.44-2.74 1.58-4.25s8-9.05 15.22-16.75c7.22-7.7 37.08-37.85 66.36-67 43.04-42.87 53.6-53.9 55.28-57.75 1.34-3.1 1.84-5.7 1.42-7.5-.35-1.5-1.55-4.55-2.65-6.75s-3.75-6.7-5.87-10c-2.55-3.95-5.15-6.63-7.6-7.84-3.7-1.84-3.8-1.83-18.73 1.33-8.25 1.75-18.15 4.08-22 5.17-3.85 1.1-8.58 2.23-10.5 2.52-1.93.3-4.3.94-5.25 1.43s-2.54.88-3.5.87-9.63 2.04-19.25 4.56c-9.63 2.5-20.88 5.62-25 6.9-4.13 1.3-9.08 2.62-11 2.96-1.93.34-7.1 1.7-11.5 3.04l-14 4.13c-3.3.94-8.7 2.57-12 3.64-3.3 1.06-7.13 2.14-8.5 2.4-1.38.26-8.58 2.4-16 4.78l-26 8.03c-6.88 2.05-14.75 4.55-17.5 5.57-2.75 1-9.28 3.25-14.5 4.96l-20 6.5-20.5 6.9-22.5 7.93-25.5 9.15-19 6.74c-3.3 1.1-6.56 2.43-7.25 2.93-.7.5-1.93.67-2.75.4-1.13-.38-1.35-1.42-.9-4.25.33-2.06 1.22-5.33 1.97-7.25.83-2.1 3.27-4.87 6.15-6.95 2.63-1.9 5-3.7 5.28-4 .27-.3 4.5-3.25 9.4-6.55l14.5-9.9 39.6-26.6c1.65-1.16 6.82-4.54 11.5-7.5l11.5-7.5c1.65-1.15 9.97-6.55 18.5-12l30.75-19.7 22.5-14.57 12.25-7.83c2.75-1.7 8.2-5.18 12.1-7.75l13-8.6c3.24-2.16 8.48-6.66 11.65-10 3.16-3.35 7.86-9.83 10.43-14.4 4.68-8.33 4.68-8.33 8.24-7.8zm48.57 125.77c1.1 0 2.9.36 4 .8 1.77.7.87 1.96-8 11.13l-26.5 27L223.37 324.5l-7.43 1.82-11.44 2.7-20 4.33-27 6.12-15 3.52c-2.2.47-9.4 2.5-16 4.54l-15 4.48c-1.65.44-7.73 2.2-13.5 3.92l-20 6.03-19.5 5.9-18.25 5.57c-8.06 2.5-8.25 2.52-8.25.57 0-1.1 1.6-7.74 3.58-14.75L40 343.5c.46-1.65 2.02-6.83 3.48-11.5l3.48-11.5L51.5 305l5.18-18c.8-3.03 2.22-7.9 3.15-10.83.92-2.93 2.35-5.87 3.18-6.54.82-.67 6.67-2.85 13-4.86l26.5-8.3 42-13.26L168 236l19-6c3.02-1.02 10.9-3.5 17.5-5.54l20-6.16 22.5-7 16.5-5.35c1.1-.45 5.82-1.96 10.5-3.36l22-6.65c7.42-2.26 15.07-4.72 17-5.46 1.92-.74 5.75-2.02 8.5-2.86l16.5-5.05 16.5-5c2.75-.8 5.9-1.46 7-1.46zM152.25 393.1c1.5-.06 2.75.34 2.75.9s-1.23 2.46-2.74 4.25-3.24 3.7-3.84 4.25-5.1 5.72-10 11.5l-13.9 16.1-14 15.92-15.13 16.9c-3.38 3.62-7.82 8.6-9.9 11.08-2.06 2.47-4.47 5.18-5.36 6-.9.83-4.82 5.1-8.72 9.5l-18.2 20-14.35-4.3-23.35-6.77c-4.95-1.36-10.28-3.03-14.7-4.94l.43-9.5c.28-6.22 1.36-12.78 3.14-19l4.77-16c1.13-3.58 2.57-7.78 3.2-9.34.9-2.2 3.1-3.77 9.65-6.86 4.67-2.22 12.77-5.84 18-8.05 5.22-2.2 14-5.55 19.5-7.4l16-5.3a244.21 244.21 0 0 1 12.5-3.56l18.5-4.65 21-5.32 15.5-3.8c3.57-.82 7.74-1.55 9.25-1.6zM559.5 595.48c1.65.15 4.35.8 6 1.47s4.46 2.3 6.25 3.62c1.8 1.34 4.22 4.34 5.42 6.68 1.52 3 2.2 6.2 2.25 10.82.07 5.63-.35 7.26-2.92 11.43-1.8 2.9-4.8 5.97-7.5 7.6-3.7 2.25-5.75 2.76-11.5 2.85-6.05.1-7.54-.26-11-2.58-2.2-1.48-4.73-3.4-5.62-4.28-.9-.88-2.36-3.05-3.25-4.84-.9-1.8-1.62-4.26-1.6-5.5s-.47-2.7-1.05-3.25c-.75-.7-.56-2.63.65-6.5.94-3.03 3.1-7.25 4.8-9.4 1.7-2.14 4.33-4.5 5.84-5.25s4.44-1.76 6.5-2.26c2.06-.5 5.1-.77 6.75-.62zm-12.94 9.02c-2.06 1.65-4.26 4.35-4.9 6s-1.13 5.02-1.1 7.5c.04 2.47.45 5.62.9 7 .47 1.37 1.56 3.2 2.43 4.07.88.87 2.94 2.5 4.6 3.66s4.57 2.2 6.5 2.36c1.92.15 4.74.2 6.25.1s3.1-.87 3.5-1.7c.48-.98.03-2.14-1.25-3.26-1.1-.95-2.9-3.2-4-5-1.1-1.8-2.9-3.52-4-3.83-1.16-.33-2.3-.01-2.73.77-.4.74-.75 2.8-.75 4.6-.01 1.8-.58 3.52-1.27 3.86-.7.33-1.7.08-2.25-.55-.55-.64-1.03-4.62-1.07-8.86s.2-9.4.5-11.47l.57-3.77c11.98-.01 13.33.35 15.12 2.26 1.17 1.26 2.34 2.95 2.6 3.78.26.82-.54 3.07-1.78 5l-2.25 3.5c4.12 8.04 5.87 10.4 6.56 10.44.7.03 2.37-1.85 3.73-4.2 1.56-2.68 2.48-5.82 2.5-8.5.01-2.34-.77-5.9-1.73-7.95-.96-2.03-3.55-4.95-5.75-6.48-2.2-1.54-4.34-2.57-4.75-2.3-.4.26-.98.03-1.25-.52-.28-.55-1.74-.95-3.25-.88a32.67 32.67 0 0 0-5.35.75c-1.43.35-4.28 1.98-6.34 3.63zm5.94 10c.28.83 1.73 1.52 3.25 1.54 1.5.03 3.3-.65 4-1.5.7-.84 1.02-2 .75-2.54-.28-.55-2.3-1-4.5-1s-4 .45-4 1 .22 1.67.5 2.5z" fill="#005941"/></svg>