<svg xmlns="http://www.w3.org/2000/svg" viewBox="0 0 641 640" width="641" height="640">
	<style>
		tspan { white-space:pre }
		.shp0 { fill: #005941 } 
	</style>
	<path id="Path 0" fill-rule="evenodd" class="shp0" d="M142.48 0C143.86 0 148.94 1.35 153.75 2.99C158.56 4.64 163.4 6.19 164.5 6.44C165.6 6.69 170.55 8.07 175.5 9.51C180.45 10.96 185.85 12.53 187.5 13C189.15 13.48 193.2 14.59 196.5 15.47C199.8 16.35 203.5 17.62 204.73 18.29C206.93 19.48 206.93 19.52 204.98 20.75C203.89 21.44 202.79 21.89 202.53 21.75C202.28 21.61 198.34 22.24 193.78 23.15C189.23 24.06 179.42 26.23 172 27.97C164.57 29.71 154.9 32.18 150.5 33.46C146.1 34.74 140.47 36.32 138 36.98C135.52 37.64 132.78 38.03 131.89 37.84C130.47 37.54 130.63 36.2 133.21 26.5C134.82 20.45 136.83 12.57 137.69 9C138.55 5.42 139.41 1.94 139.6 1.25C139.79 0.56 141.09 0 142.48 0ZM249 45.68C250.38 45.97 256.22 46.51 262 46.87C267.77 47.23 273.06 47.86 273.75 48.26C274.44 48.67 275.02 49.56 275.04 50.25C275.06 50.94 265.82 57.8 254.5 65.5C243.17 73.2 232.84 80.17 231.53 81C230.22 81.82 221.35 87.76 211.83 94.2C202.3 100.63 190.56 108.62 185.75 111.95C180.94 115.28 176.55 118 176 118C175.45 118 175 118.34 174.99 118.75C174.99 119.16 173.54 120.4 171.78 121.5C170.01 122.6 167.55 124.17 166.31 125C165.06 125.82 152.78 134.15 139 143.5C125.22 152.85 112.87 161.17 111.54 162C110.22 162.82 105.28 166.09 100.56 169.25C95.85 172.41 91.55 175 91 175C90.41 175 90.26 173.68 90.64 171.75C90.99 169.96 91.63 167.82 92.06 167C92.49 166.17 93.07 164.38 93.34 163C93.62 161.62 95.02 156.67 96.45 152C97.89 147.32 100.44 138.55 102.12 132.5C103.8 126.45 105.55 120.82 105.99 120C106.44 119.17 107.05 117.15 107.35 115.5C107.65 113.85 109.01 108.67 110.37 104C111.74 99.32 114.03 91.45 115.47 86.5C117.2 80.55 118.93 76.74 120.55 75.25C121.9 74.01 123.67 73 124.5 73C125.32 73 126.79 72.56 127.75 72.02C128.71 71.49 135.12 69.26 142 67.08C148.87 64.9 157.2 62.39 160.5 61.51C163.8 60.64 167.62 59.71 169 59.45C170.38 59.2 173.3 58.55 175.5 58C177.7 57.46 184 56.07 189.5 54.92C195 53.76 201.52 52.64 204 52.42C206.47 52.19 210.3 51.59 212.5 51.08C214.7 50.57 222.12 49.42 229 48.52C235.87 47.62 242.62 46.49 244 46.01C245.38 45.54 247.62 45.39 249 45.68ZM312.93 50.37C314.9 50.65 318.07 51.33 320 51.87C321.92 52.42 325.75 53.53 328.5 54.34C331.25 55.15 336.87 56.82 341 58.04C345.12 59.26 353.45 61.73 359.5 63.54C365.55 65.35 374.1 67.8 378.5 68.98C382.9 70.15 388.07 71.72 390 72.45C391.92 73.18 393.95 73.85 394.5 73.92C395.05 74 397.3 74.54 399.5 75.12C401.7 75.7 405.97 76.97 409 77.93C412.02 78.9 416.3 80.19 418.5 80.8C420.7 81.41 427 83.26 432.5 84.9C438 86.54 449.02 89.72 457 91.96C464.97 94.19 473.97 96.75 477 97.63C480.02 98.51 485.65 100.26 489.5 101.52C493.35 102.79 498.3 104.18 500.5 104.61C502.7 105.05 504.72 105.45 505 105.51C505.27 105.56 510 107.04 515.5 108.8C521 110.56 526.4 112.18 527.5 112.41C528.6 112.63 532.42 113.74 536 114.87C539.57 115.99 548.8 118.78 556.5 121.06C564.2 123.34 574.55 126.34 579.5 127.72C584.45 129.1 591.42 131.05 595 132.05C598.57 133.05 605.32 135.06 610 136.53C614.67 137.99 623 140.41 628.5 141.91C634 143.4 639.06 144.93 639.75 145.31C640.6 145.78 641 148.78 640.99 154.75C640.99 160.49 640.27 166.08 638.91 171C637.77 175.12 635.57 182.55 634.01 187.5C632.46 192.45 630.94 197.85 630.65 199.5C630.35 201.15 629.37 204.75 628.47 207.5C627.57 210.25 624.84 219.25 622.4 227.5C619.97 235.75 616.82 246.77 615.4 252C613.98 257.22 612.13 263.52 611.29 266C610.46 268.47 609.61 271.17 609.41 272C609.22 272.82 608.63 275.07 608.1 277C607.57 278.92 606.47 282.75 605.65 285.5C604.84 288.25 602.54 295.9 600.54 302.5C598.55 309.1 595.58 319.11 593.96 324.75C592.33 330.39 591.34 334.98 591.75 334.96C592.16 334.93 591.97 335.49 591.33 336.21C590.69 336.92 589.26 340.87 588.15 345C587.04 349.12 584.94 356.32 583.5 361C582.05 365.67 579.55 374 577.95 379.5C576.35 385 573.21 395.8 570.97 403.5C568.73 411.2 566.44 419.07 565.88 421C565.32 422.92 564.5 426.07 564.06 428C563.61 429.92 561.87 435.77 560.19 441C558.51 446.22 555.08 457.47 552.57 466C550.06 474.52 548 482.06 548 482.75C548 483.44 546.88 487.26 545.51 491.25C544.14 495.24 542.81 499.4 542.55 500.5C542.29 501.6 540.98 506.32 539.62 511C538.27 515.67 535.27 525.8 532.96 533.5C530.65 541.2 527.42 552.22 525.79 558C524.16 563.77 521.99 571.42 520.98 575C519.96 578.57 517.95 585.32 516.52 590C515.08 594.67 512.56 603.45 510.92 609.5C509.28 615.55 507.51 621.4 506.98 622.5C506.45 623.6 505.31 627.42 504.44 631C503.57 634.57 502.78 638.1 502.68 638.83C502.56 639.67 501.59 639.99 500 639.7C498.62 639.44 493.9 638.23 489.5 637.01C485.1 635.78 478.35 633.95 474.5 632.95C470.65 631.94 465.02 630.38 462 629.49C458.97 628.59 455.15 627.48 453.5 627.02C451.85 626.56 446.67 624.99 442 623.53C437.32 622.07 432.15 620.48 430.5 620C428.85 619.52 424.35 618.25 420.5 617.17C416.65 616.1 404.05 612.44 392.5 609.04C380.95 605.64 367.67 601.73 363 600.35C358.32 598.97 350 596.57 344.5 595.01C339 593.46 332.59 591.47 330.25 590.59C327.91 589.72 326 589.22 326 589.5C326 589.77 324.42 589.32 322.5 588.5C320.57 587.67 318.66 587.09 318.25 587.2C317.84 587.3 312.77 585.93 307 584.15C301.22 582.37 293.35 580.01 289.5 578.9C285.65 577.79 280.7 576.28 278.5 575.53C276.3 574.78 270 572.97 264.5 571.5C259 570.04 253.6 568.43 252.5 567.94C251.4 567.44 249.37 566.82 248 566.56C246.63 566.29 241.67 564.89 237 563.45C232.32 562 227.15 560.45 225.5 559.99C223.85 559.54 218.45 557.97 213.5 556.51C208.55 555.06 203.15 553.48 201.5 553.02C199.85 552.56 193.1 550.58 186.5 548.63C179.9 546.69 171.46 544.17 167.75 543.05C164.04 541.92 160.66 541 160.25 541C159.84 541 156.8 540.15 153.5 539.11C150.2 538.07 144.8 536.46 141.5 535.54C138.2 534.62 133.02 533.03 130 532.01C126.97 531 120.9 529.2 116.5 528.02C112.1 526.85 106.36 525.12 103.73 524.19C101.11 523.26 98.96 522.27 98.95 522C98.94 521.72 99.93 520.15 101.15 518.5C102.38 516.85 105.21 513.46 107.44 510.97C109.67 508.48 113.97 503.54 117 500C120.02 496.46 124.52 491.3 127 488.54C129.47 485.79 133.56 481.27 136.08 478.52C138.6 475.76 146.93 466.75 154.58 458.51C162.24 450.27 177.06 434.74 187.52 424.01C197.99 413.28 212.61 398.22 220.02 390.54C227.44 382.86 234.61 375.44 235.97 374.04C237.94 372.01 240.77 371.03 249.97 369.16C256.31 367.87 264.2 366.63 267.5 366.4C270.8 366.18 275.07 365.57 277 365.05C278.92 364.53 283.87 363.86 288 363.56C292.12 363.26 296.63 362.8 298 362.55C299.37 362.29 304.55 361.56 309.5 360.93C314.45 360.29 321.65 359.36 325.5 358.85C329.35 358.35 335.42 357.74 339 357.49C342.57 357.24 348.65 356.59 352.5 356.05C356.35 355.51 363.55 354.83 368.5 354.53C373.45 354.24 378.77 354.34 383.14 355.5L377.99 361.5C375.16 364.8 372.09 368.18 371.17 369.02C370.25 369.86 367.74 372.56 365.58 375.02C363.43 377.48 357.8 383.75 353.08 388.95C348.36 394.14 341.12 402.04 337 406.49C332.88 410.95 325.86 418.62 321.4 423.55C316.95 428.47 309.08 437.45 303.92 443.5C298.76 449.55 294.28 454.72 293.97 455C293.66 455.27 289.6 460.22 284.95 466C280.3 471.77 274.48 479.2 272.01 482.5C269.54 485.8 265.61 491.31 263.26 494.75C259.8 499.82 259 501.85 259 505.5C259 509.03 259.62 510.7 261.86 513.25C263.43 515.04 268.49 518.42 273.11 520.77C277.72 523.11 282.3 525.59 283.29 526.27C284.85 527.34 285.8 526.74 290.79 521.48C293.93 518.16 298.72 512.99 301.44 509.98C304.16 506.96 308.89 501.8 311.94 498.49C315 495.19 321.55 488 326.5 482.52C331.45 477.04 338.87 468.91 343 464.47C347.12 460.02 355.71 450.79 362.09 443.94C368.46 437.1 375.85 429.02 378.5 426C381.16 422.97 384.05 419.82 384.92 419C385.79 418.17 389.71 413.9 393.63 409.5C397.55 405.1 402.5 399.67 404.63 397.43C406.76 395.19 415.02 386.2 423 377.46C430.97 368.72 440.87 358.03 445 353.7C452.36 345.99 452.62 345.83 459 344.82C462.57 344.25 474.72 343.78 486 343.76C497.27 343.74 508.97 344.16 512 344.68C515.02 345.2 519.3 346.61 521.5 347.82C523.7 349.02 526.4 350 527.5 349.99C528.6 349.98 531.3 349.07 533.5 347.98C535.7 346.88 540.2 343.47 543.5 340.4C546.8 337.33 551.42 333.4 553.78 331.66C557.33 329.04 558.41 327.4 560.14 322C561.28 318.42 562.27 313.02 562.34 310C562.4 306.97 562.13 303.26 561.73 301.75C561.23 299.86 559.67 298.33 556.75 296.88C554.41 295.71 550.25 294.55 547.5 294.3C544.75 294.04 539.8 294.35 536.5 294.98C533.2 295.61 526.45 296.37 521.5 296.68C513.74 297.16 511.85 296.94 507.75 295.12C505.14 293.95 503 292.44 503 291.75C502.99 291.06 508.06 284.63 514.25 277.46C520.44 270.28 528.68 261.06 532.57 256.96C536.47 252.85 541.73 247.25 544.28 244.5C546.83 241.75 558.87 229.38 571.05 217C584.91 202.9 594.02 192.82 595.44 190C596.69 187.52 598 184.26 598.36 182.75C598.71 181.24 598.49 178.09 597.87 175.75C597.25 173.41 595.79 170.22 594.62 168.65C593.46 167.08 590.81 164.94 588.75 163.9C586.69 162.85 581.85 161.32 578 160.5C574.15 159.67 570.21 158.98 569.25 158.96C568.19 158.94 563.78 163.58 558.07 170.71C552.88 177.19 546.81 184.54 544.57 187.04C542.33 189.54 536.9 195.61 532.5 200.54C528.1 205.47 521.57 212.6 518 216.4C514.42 220.2 497.32 237.56 480 254.98C462.67 272.4 447.37 287.25 446 287.99C444.62 288.73 441.92 289.74 440 290.23C438.07 290.73 434.92 291.54 433 292.03C431.07 292.53 426.57 293.65 423 294.52C419.42 295.39 414.92 296.31 413 296.56C411.07 296.81 407.25 297.43 404.5 297.94C401.75 298.45 394.77 299.4 389 300.05C383.22 300.7 375.57 301.63 372 302.11C368.42 302.59 361.67 303.21 357 303.5C352.32 303.79 347.15 304.42 345.5 304.9C343.85 305.39 340.25 305.85 337.5 305.94C334.75 306.03 328.22 306.98 323 308.06C317.77 309.14 311.36 310.01 308.75 310.01C305.42 310 303.85 309.55 303.5 308.5C303.22 307.67 303.94 305.76 305.08 304.25C306.22 302.74 313.07 295.2 320.3 287.5C327.52 279.8 357.38 249.65 386.66 220.5C429.7 177.63 440.27 166.59 441.94 162.75C443.28 159.66 443.78 157.04 443.36 155.25C443.01 153.74 441.81 150.7 440.71 148.5C439.61 146.3 436.96 141.8 434.84 138.5C432.29 134.55 429.69 131.87 427.23 130.66C423.52 128.82 423.43 128.83 408.5 131.99C400.25 133.74 390.35 136.07 386.5 137.16C382.65 138.26 377.92 139.39 376 139.68C374.07 139.98 371.71 140.62 370.75 141.11C369.79 141.6 368.21 141.99 367.25 141.98C366.29 141.97 357.62 144.02 348 146.54C338.37 149.05 327.12 152.16 323 153.44C318.87 154.73 313.92 156.06 312 156.4C310.07 156.74 304.9 158.11 300.5 159.44C296.1 160.77 289.8 162.63 286.5 163.57C283.2 164.51 277.8 166.14 274.5 167.21C271.2 168.27 267.37 169.35 266 169.61C264.62 169.87 257.42 172.02 250 174.39C242.57 176.76 230.87 180.37 224 182.42C217.12 184.47 209.25 186.97 206.5 187.99C203.75 189 197.22 191.24 192 192.95C186.77 194.66 177.77 197.59 172 199.46C166.22 201.34 157 204.44 151.5 206.35C146 208.27 135.87 211.84 129 214.28C122.12 216.73 110.65 220.85 103.5 223.43C96.35 226.02 87.8 229.05 84.5 230.17C81.2 231.28 77.94 232.6 77.25 233.1C76.56 233.59 75.32 233.77 74.5 233.5C73.37 233.12 73.15 232.08 73.6 229.25C73.93 227.19 74.82 223.92 75.57 222C76.4 219.89 78.84 217.13 81.72 215.05C84.35 213.15 86.72 211.35 87 211.05C87.27 210.75 91.5 207.8 96.4 204.5C101.29 201.2 107.82 196.75 110.9 194.61C113.98 192.48 123.47 186.09 132 180.42C140.52 174.75 148.85 169.16 150.5 168C152.15 166.84 157.32 163.46 162 160.5C166.67 157.54 171.85 154.17 173.5 153.01C175.15 151.86 183.47 146.46 192 141.02C200.52 135.58 214.36 126.72 222.75 121.32C231.14 115.92 241.27 109.36 245.25 106.75C249.24 104.14 254.75 100.62 257.5 98.92C260.25 97.23 265.7 93.74 269.61 91.17C273.53 88.6 279.38 84.73 282.61 82.58C285.85 80.42 291.09 75.92 294.26 72.58C297.42 69.23 302.12 62.75 304.69 58.18C309.37 49.85 309.37 49.85 312.93 50.37ZM361.5 176.14C362.6 176.14 364.4 176.5 365.5 176.93C367.27 177.64 366.37 178.89 357.5 188.06C352 193.75 340.07 205.9 331 215.07C321.92 224.24 306.4 240.02 296.5 250.12C286.6 260.23 266.1 281.1 223.37 324.5L215.94 326.32C211.85 327.32 206.7 328.54 204.5 329.02C202.3 329.51 193.3 331.46 184.5 333.35C175.7 335.25 163.55 338 157.5 339.47C151.45 340.93 144.7 342.52 142.5 342.99C140.3 343.46 133.1 345.5 126.5 347.53C119.9 349.56 113.15 351.58 111.5 352.01C109.85 352.45 103.77 354.21 98 355.93C92.22 357.65 83.22 360.36 78 361.96C72.77 363.56 64 366.21 58.5 367.86C53 369.51 44.79 372.02 40.25 373.43C32.19 375.94 32 375.95 32 374C32 372.9 33.61 366.26 35.58 359.25C37.55 352.24 39.54 345.15 39.99 343.5C40.45 341.85 42.01 336.67 43.47 332C44.93 327.32 46.5 322.15 46.95 320.5C47.41 318.85 49.45 311.88 51.49 305C53.53 298.13 55.86 290.02 56.67 287C57.48 283.97 58.89 279.1 59.82 276.17C60.74 273.24 62.17 270.3 63 269.63C63.82 268.96 69.67 266.78 76 264.77C82.32 262.76 94.25 259.03 102.5 256.48C110.75 253.93 121.32 250.59 126 249.06C130.67 247.53 139 244.9 144.5 243.22C150 241.54 160.57 238.3 168 236.01C175.42 233.73 183.97 231.03 187 230.02C190.02 229 197.9 226.51 204.5 224.48C211.1 222.44 220.1 219.67 224.5 218.32C228.9 216.96 239.02 213.81 247 211.32C254.97 208.83 262.4 206.42 263.5 205.97C264.6 205.52 269.32 204.01 274 202.61C278.67 201.21 288.57 198.22 296 195.96C303.42 193.7 311.07 191.24 313 190.5C314.92 189.76 318.75 188.48 321.5 187.64C324.25 186.81 331.67 184.54 338 182.59C344.32 180.65 351.75 178.4 354.5 177.6C357.25 176.8 360.4 176.14 361.5 176.14ZM152.25 393.11C153.76 393.05 155 393.45 155 394C155 394.55 153.77 396.46 152.26 398.25C150.75 400.04 149.02 401.95 148.42 402.5C147.82 403.05 143.31 408.22 138.41 414C133.52 419.77 127.26 427.02 124.5 430.1C121.75 433.18 115.45 440.34 110.5 446.02C105.55 451.69 98.74 459.3 95.37 462.92C91.99 466.54 87.55 471.52 85.48 474C83.42 476.47 81.01 479.18 80.12 480C79.23 480.83 75.3 485.1 71.4 489.5C67.49 493.9 61.8 500.2 53.2 509.5L38.85 505.21C30.96 502.85 20.45 499.8 15.5 498.44C10.55 497.08 5.22 495.41 0.81 493.5L1.24 484C1.52 477.78 2.6 471.22 4.38 465C5.87 459.77 8.02 452.57 9.15 449C10.28 445.42 11.72 441.22 12.35 439.66C13.24 437.47 15.46 435.89 22 432.8C26.67 430.58 34.77 426.96 40 424.75C45.22 422.54 54 419.2 59.5 417.34C65 415.48 72.2 413.1 75.5 412.05C78.8 410.99 84.42 409.39 88 408.49C91.57 407.59 99.9 405.5 106.5 403.84C113.1 402.18 122.55 399.79 127.5 398.52C132.45 397.26 139.42 395.55 143 394.72C146.57 393.9 150.74 393.17 152.25 393.11ZM559.5 595.48C561.15 595.63 563.85 596.29 565.5 596.95C567.15 597.61 569.96 599.24 571.75 600.57C573.54 601.91 575.97 604.91 577.17 607.25C578.69 610.25 579.36 613.44 579.42 618.07C579.49 623.7 579.07 625.33 576.5 629.5C574.71 632.41 571.69 635.47 569 637.1C565.3 639.35 563.25 639.86 557.5 639.95C551.45 640.05 549.96 639.69 546.5 637.37C544.3 635.89 541.77 633.96 540.88 633.09C539.98 632.21 538.52 630.04 537.63 628.25C536.73 626.46 536.01 623.99 536.02 622.75C536.03 621.51 535.55 620.05 534.97 619.5C534.22 618.8 534.41 616.87 535.62 613C536.56 609.97 538.72 605.75 540.41 603.61C542.11 601.47 544.74 599.11 546.25 598.36C547.76 597.61 550.69 596.6 552.75 596.1C554.81 595.61 557.85 595.33 559.5 595.48ZM546.56 604.5C544.5 606.15 542.3 608.85 541.66 610.5C541.02 612.15 540.53 615.52 540.57 618C540.61 620.47 541.02 623.62 541.48 625C541.95 626.37 543.04 628.21 543.91 629.07C544.79 629.94 546.85 631.58 548.5 632.73C550.15 633.88 553.07 634.94 555 635.09C556.92 635.24 559.74 635.28 561.25 635.18C562.76 635.08 564.34 634.31 564.75 633.47C565.23 632.49 564.78 631.33 563.5 630.21C562.4 629.26 560.6 627.01 559.5 625.22C558.4 623.42 556.6 621.7 555.5 621.39C554.34 621.06 553.19 621.38 552.77 622.16C552.36 622.9 552.02 624.96 552.02 626.75C552.01 628.54 551.44 630.27 550.75 630.61C550.06 630.94 549.05 630.69 548.5 630.06C547.95 629.42 547.47 625.44 547.43 621.2C547.39 616.96 547.62 611.8 547.93 609.73L548.5 605.96C560.48 605.95 561.83 606.31 563.62 608.22C564.79 609.48 565.96 611.17 566.22 612C566.48 612.82 565.68 615.07 564.44 617L562.19 620.5C566.31 628.54 568.06 630.9 568.75 630.94C569.44 630.97 571.12 629.09 572.48 626.75C574.04 624.07 574.96 620.93 574.98 618.25C574.99 615.91 574.21 612.34 573.25 610.3C572.29 608.27 569.7 605.35 567.5 603.82C565.3 602.28 563.16 601.25 562.75 601.52C562.34 601.78 561.77 601.55 561.5 601C561.22 600.45 559.76 600.05 558.25 600.12C556.74 600.18 554.33 600.52 552.9 600.87C551.47 601.22 548.62 602.85 546.56 604.5ZM552.5 614.5C552.78 615.33 554.23 616.02 555.75 616.04C557.26 616.07 559.06 615.39 559.75 614.54C560.44 613.7 560.77 612.55 560.5 612C560.22 611.45 558.2 611 556 611C553.8 611 552 611.45 552 612C552 612.55 552.22 613.67 552.5 614.5Z" />
</svg>